<svg xmlns="http://www.w3.org/2000/svg" viewBox="0 0 1200 1200">
  <defs><linearGradient id="bg" x1="0" y1="0" x2="1" y2="1"><stop stop-color="#f9fcf9"/><stop offset="1" stop-color="#d9ede1"/></linearGradient><linearGradient id="spray" x1="0" y1="0" x2="1" y2="1"><stop stop-color="#fff"/><stop offset="1" stop-color="#d8efe1"/></linearGradient><linearGradient id="label" x1="0" y1="0" x2="1" y2="1"><stop stop-color="#0f5f38"/><stop offset="1" stop-color="#8bc34a"/></linearGradient><filter id="s" x="-30%" y="-30%" width="160%" height="160%"><feDropShadow dx="0" dy="35" stdDeviation="30" flood-color="#16482a" flood-opacity=".22"/></filter></defs>
  <rect width="1200" height="1200" fill="url(#bg)"/><circle cx="930" cy="220" r="180" fill="#fff" opacity=".7"/><circle cx="240" cy="840" r="210" fill="#8bc34a" opacity=".18"/><ellipse cx="600" cy="975" rx="300" ry="42" fill="#0e3822" opacity=".13"/>
  <g filter="url(#s)"><path d="M512 190h220c35 0 58 26 58 58v80H462v-78c0-34 18-60 50-60z" fill="#173c28"/><path d="M725 214h115c28 0 52 20 56 48l8 55H748z" fill="#2d8a52"/><rect x="455" y="330" width="300" height="610" rx="74" fill="url(#spray)" stroke="#c5dfcd" stroke-width="5"/><path d="M495 455c74-46 177-44 220 6v270c-56 44-166 47-220 3z" fill="url(#label)"/><text x="606" y="562" text-anchor="middle" font-family="Arial, sans-serif" font-size="48" font-weight="800" fill="#fff">iNatural</text><text x="606" y="630" text-anchor="middle" font-family="Arial, sans-serif" font-size="36" font-weight="700" fill="#eef9ed">All Purpose</text><text x="606" y="684" text-anchor="middle" font-family="Arial, sans-serif" font-size="32" font-weight="700" fill="#fff">500 ml</text></g>
</svg>
