<svg xmlns="http://www.w3.org/2000/svg" viewBox="0 0 1200 1200">
  <defs><linearGradient id="bg" x1="0" y1="0" x2="1" y2="1"><stop stop-color="#f7fbf6"/><stop offset="1" stop-color="#d8ecdd"/></linearGradient><linearGradient id="j" x1="0" y1="0" x2="1" y2="1"><stop stop-color="#fff"/><stop offset="1" stop-color="#c7e2cf"/></linearGradient><linearGradient id="l" x1="0" y1="0" x2="1" y2="1"><stop stop-color="#0f5f38"/><stop offset="1" stop-color="#7dbf39"/></linearGradient><filter id="s" x="-30%" y="-30%" width="160%" height="160%"><feDropShadow dx="0" dy="42" stdDeviation="36" flood-color="#16482a" flood-opacity=".24"/></filter></defs>
  <rect width="1200" height="1200" fill="url(#bg)"/><circle cx="930" cy="830" r="240" fill="#fff" opacity=".56"/><circle cx="260" cy="230" r="145" fill="#8bc34a" opacity=".16"/><ellipse cx="600" cy="998" rx="360" ry="50" fill="#0e3822" opacity=".14"/>
  <g filter="url(#s)"><path d="M450 250h300c40 0 70 30 70 70v78H380v-78c0-40 30-70 70-70z" fill="#173c28"/><rect x="365" y="370" width="470" height="570" rx="80" fill="url(#j)" stroke="#bed8c5" stroke-width="5"/><path d="M425 515c98-54 250-55 350 0v285c-95 48-252 48-350 0z" fill="url(#l)"/><text x="600" y="620" text-anchor="middle" font-family="Arial, sans-serif" font-size="58" font-weight="800" fill="#fff">iNatural</text><text x="600" y="696" text-anchor="middle" font-family="Arial, sans-serif" font-size="42" font-weight="700" fill="#eef9ed">All Purpose</text><text x="600" y="756" text-anchor="middle" font-family="Arial, sans-serif" font-size="38" font-weight="700" fill="#fff">5L</text></g>
</svg>
