<svg xmlns="http://www.w3.org/2000/svg" viewBox="0 0 1200 1200">
  <defs><linearGradient id="bg" x1="0" y1="0" x2="1" y2="1"><stop stop-color="#f7fbf7"/><stop offset="1" stop-color="#d7ecdf"/></linearGradient><linearGradient id="pack" x1="0" y1="0" x2="1" y2="1"><stop stop-color="#fff"/><stop offset="1" stop-color="#d7eadc"/></linearGradient><linearGradient id="l" x1="0" y1="0" x2="1" y2="1"><stop stop-color="#1a6b3c"/><stop offset="1" stop-color="#8bc34a"/></linearGradient><filter id="s" x="-30%" y="-30%" width="160%" height="160%"><feDropShadow dx="0" dy="35" stdDeviation="30" flood-color="#16482a" flood-opacity=".2"/></filter></defs>
  <rect width="1200" height="1200" fill="url(#bg)"/><circle cx="265" cy="240" r="170" fill="#fff" opacity=".7"/><circle cx="940" cy="870" r="225" fill="#8bc34a" opacity=".18"/><ellipse cx="600" cy="980" rx="360" ry="50" fill="#0e3822" opacity=".12"/>
  <g filter="url(#s)"><rect x="310" y="455" width="250" height="390" rx="62" fill="url(#pack)" stroke="#c7ddce" stroke-width="5"/><rect x="480" y="360" width="300" height="485" rx="75" fill="url(#pack)" stroke="#c7ddce" stroke-width="5"/><rect x="690" y="505" width="220" height="340" rx="55" fill="url(#pack)" stroke="#c7ddce" stroke-width="5"/><path d="M335 565h200v145H335zM515 495h230v185H515zM715 610h170v125H715z" fill="url(#l)"/><text x="600" y="275" text-anchor="middle" font-family="Arial, sans-serif" font-size="58" font-weight="800" fill="#1a6b3c">Daily Refresh</text><text x="600" y="915" text-anchor="middle" font-family="Arial, sans-serif" font-size="36" font-weight="700" fill="#365b45">bundle</text></g>
</svg>
