<svg xmlns="http://www.w3.org/2000/svg" viewBox="0 0 1200 1200">
  <defs><linearGradient id="bg" x1="0" y1="0" x2="1" y2="1"><stop stop-color="#f4faf6"/><stop offset="1" stop-color="#d2e8da"/></linearGradient><linearGradient id="b" x1="0" y1="0" x2="1" y2="1"><stop stop-color="#fff"/><stop offset="1" stop-color="#cfe6d5"/></linearGradient><linearGradient id="l" x1="0" y1="0" x2="1" y2="1"><stop stop-color="#155f37"/><stop offset="1" stop-color="#6fbf44"/></linearGradient><filter id="s" x="-30%" y="-30%" width="160%" height="160%"><feDropShadow dx="0" dy="38" stdDeviation="34" flood-color="#16482a" flood-opacity=".23"/></filter></defs>
  <rect width="1200" height="1200" fill="url(#bg)"/><circle cx="250" cy="810" r="210" fill="#fff" opacity=".58"/><circle cx="940" cy="260" r="160" fill="#8bc34a" opacity=".17"/><ellipse cx="600" cy="1000" rx="330" ry="48" fill="#0e3822" opacity=".13"/>
  <g filter="url(#s)"><path d="M450 230h320v125H450z" rx="30" fill="#16482a"/><rect x="420" y="335" width="360" height="610" rx="95" fill="url(#b)" stroke="#bed8c5" stroke-width="5"/><path d="M470 465c75-44 193-44 260 4v292c-65 46-190 48-260 2z" fill="url(#l)"/><text x="600" y="570" text-anchor="middle" font-family="Arial, sans-serif" font-size="54" font-weight="800" fill="#fff">iNatural</text><text x="600" y="642" text-anchor="middle" font-family="Arial, sans-serif" font-size="42" font-weight="700" fill="#eef9ed">Laundry</text><text x="600" y="704" text-anchor="middle" font-family="Arial, sans-serif" font-size="36" font-weight="700" fill="#fff">2L</text></g>
</svg>
