<svg xmlns="http://www.w3.org/2000/svg" viewBox="0 0 1200 1200">
  <defs>
    <linearGradient id="bg" x1="0" y1="0" x2="1" y2="1"><stop stop-color="#f7fbf7"/><stop offset="1" stop-color="#dcefe1"/></linearGradient>
    <linearGradient id="bottle" x1="0" y1="0" x2="1" y2="1"><stop stop-color="#ffffff"/><stop offset=".55" stop-color="#f4faf4"/><stop offset="1" stop-color="#cfe8d6"/></linearGradient>
    <linearGradient id="label" x1="0" y1="0" x2="1" y2="1"><stop stop-color="#1a6b3c"/><stop offset="1" stop-color="#7abf35"/></linearGradient>
    <filter id="shadow" x="-30%" y="-30%" width="160%" height="160%"><feDropShadow dx="0" dy="38" stdDeviation="32" flood-color="#16482a" flood-opacity=".22"/></filter>
  </defs>
  <rect width="1200" height="1200" fill="url(#bg)"/>
  <circle cx="250" cy="230" r="150" fill="#ffffff" opacity=".75"/>
  <circle cx="965" cy="885" r="230" fill="#9fd27f" opacity=".2"/>
  <ellipse cx="602" cy="1000" rx="310" ry="46" fill="#0e3822" opacity=".13"/>
  <g filter="url(#shadow)">
    <rect x="440" y="208" width="320" height="88" rx="30" fill="#1a6b3c"/>
    <rect x="475" y="270" width="250" height="670" rx="82" fill="url(#bottle)" stroke="#bfd9c6" stroke-width="5"/>
    <path d="M505 365c70-34 165-34 220 12v282c-60 48-166 45-220 2z" fill="url(#label)"/>
    <path d="M533 405c58 30 125 28 164-5" fill="none" stroke="#fff" stroke-width="9" stroke-linecap="round" opacity=".75"/>
    <text x="600" y="510" text-anchor="middle" font-family="Arial, sans-serif" font-size="54" font-weight="800" fill="#fff">iNatural</text>
    <text x="600" y="582" text-anchor="middle" font-family="Arial, sans-serif" font-size="42" font-weight="700" fill="#eef9ed">Laundry</text>
    <text x="600" y="640" text-anchor="middle" font-family="Arial, sans-serif" font-size="34" font-weight="700" fill="#fff">1.5L</text>
  </g>
</svg>
