<svg xmlns="http://www.w3.org/2000/svg" viewBox="0 0 1200 1200">
  <defs><linearGradient id="bg" x1="0" y1="0" x2="1" y2="1"><stop stop-color="#fbfaf4"/><stop offset="1" stop-color="#dcebe1"/></linearGradient><linearGradient id="box" x1="0" y1="0" x2="1" y2="1"><stop stop-color="#123d2c"/><stop offset="1" stop-color="#2d8a52"/></linearGradient><filter id="s" x="-30%" y="-30%" width="160%" height="160%"><feDropShadow dx="0" dy="38" stdDeviation="34" flood-color="#123d2c" flood-opacity=".25"/></filter></defs>
  <rect width="1200" height="1200" fill="url(#bg)"/><circle cx="920" cy="230" r="170" fill="#fff" opacity=".72"/><circle cx="250" cy="860" r="230" fill="#c8a96a" opacity=".18"/><ellipse cx="600" cy="960" rx="370" ry="52" fill="#0e3822" opacity=".12"/>
  <g filter="url(#s)"><rect x="335" y="380" width="530" height="420" rx="60" fill="url(#box)"/><path d="M335 505h530M600 380v420" stroke="#e6d6aa" stroke-width="18" opacity=".88"/><path d="M515 320c30 55 65 72 85 75-62 12-116 0-162-35 22-28 48-42 77-40zM685 320c-30 55-65 72-85 75 62 12 116 0 162-35-22-28-48-42-77-40z" fill="#e6d6aa"/><text x="600" y="680" text-anchor="middle" font-family="Arial, sans-serif" font-size="56" font-weight="800" fill="#fff">Luxury Care</text><text x="600" y="735" text-anchor="middle" font-family="Arial, sans-serif" font-size="32" font-weight="700" fill="#e6d6aa">iNatural</text></g>
</svg>
